HIERARCHY
ROOT Hips
{
 OFFSET 0.000000 0.000000 0.000000
 CHANNELS 6 Xposition Yposition Zposition Yrotation Xrotation Zrotation
 JOINT Chest
 {
  OFFSET 0.000000 10.383400 0.001500
  CHANNELS 3 Yrotation Xrotation Zrotation
  JOINT Chest2
  {
   OFFSET 0.000000 10.418200 -0.003100
   CHANNELS 3 Yrotation Xrotation Zrotation
   JOINT Chest3
   {
    OFFSET 0.000000 10.375100 0.000000
    CHANNELS 3 Yrotation Xrotation Zrotation
    JOINT Chest4
    {
     OFFSET 0.000000 10.364600 0.000000
     CHANNELS 3 Yrotation Xrotation Zrotation
     JOINT Neck
     {
      OFFSET 0.000000 15.642200 0.000000
      CHANNELS 3 Yrotation Xrotation Zrotation
      JOINT Head
      {
       OFFSET 0.000000 9.697300 -0.006500
       CHANNELS 3 Yrotation Xrotation Zrotation
       End Site
       {
        OFFSET 0.000000 18.492200 -0.003400
       }
      }
     }
     JOINT RightCollar
     {
      OFFSET -3.166800 10.349300 0.000000
      CHANNELS 3 Yrotation Xrotation Zrotation
      JOINT RightShoulder
      {
       OFFSET -14.729700 0.000000 0.000000
       CHANNELS 3 Yrotation Xrotation Zrotation
       JOINT RightElbow
       {
        OFFSET 0.000000 -32.224300 0.000000
        CHANNELS 3 Yrotation Xrotation Zrotation
        JOINT RightWrist
        {
         OFFSET 0.000000 -26.084100 0.000000
         CHANNELS 3 Yrotation Xrotation Zrotation
         End Site
         {
          OFFSET 0.000000 -19.319400 0.000000
         }
        }
       }
      }
     }
     JOINT LeftCollar
     {
      OFFSET 3.166800 10.349300 0.000000
      CHANNELS 3 Yrotation Xrotation Zrotation
      JOINT LeftShoulder
      {
       OFFSET 14.729700 0.000000 0.000000
       CHANNELS 3 Yrotation Xrotation Zrotation
       JOINT LeftElbow
       {
        OFFSET 0.000000 -32.224300 0.000000
        CHANNELS 3 Yrotation Xrotation Zrotation
        JOINT LeftWrist
        {
         OFFSET 0.000000 -26.084100 0.000000
         CHANNELS 3 Yrotation Xrotation Zrotation
         End Site
         {
          OFFSET 0.000000 -19.319400 0.000000
         }
        }
       }
      }
     }
    }
   }
  }
 }
 JOINT RightHip
 {
  OFFSET -8.428900 -0.007500 -0.000800
  CHANNELS 3 Yrotation Xrotation Zrotation
  JOINT RightKnee
  {
   OFFSET 0.000000 -43.834600 0.000700
   CHANNELS 3 Yrotation Xrotation Zrotation
   JOINT RightAnkle
   {
    OFFSET 0.000000 -42.757000 0.001200
    CHANNELS 3 Yrotation Xrotation Zrotation
    JOINT RightToe
    {
     OFFSET 0.000000 -6.946900 15.649300
     CHANNELS 3 Yrotation Xrotation Zrotation
     End Site
     {
      OFFSET 0.000000 -1.580800 6.825800
     }
    }
   }
  }
 }
 JOINT LeftHip
 {
  OFFSET 8.428900 -0.007500 -0.000800
  CHANNELS 3 Yrotation Xrotation Zrotation
  JOINT LeftKnee
  {
   OFFSET 0.000000 -43.834600 0.000700
   CHANNELS 3 Yrotation Xrotation Zrotation
   JOINT LeftAnkle
   {
    OFFSET 0.000000 -42.757000 0.001200
    CHANNELS 3 Yrotation Xrotation Zrotation
    JOINT LeftToe
    {
     OFFSET 0.000000 -6.946900 15.649300
     CHANNELS 3 Yrotation Xrotation Zrotation
     End Site
     {
      OFFSET 0.000000 -1.580800 6.825800
     }
    }
   }
  }
 }
}
MOTION
Frames: 11
Frame Time: 0.008333
123.419923 126.443071 35.920853 -13.741522 -19.877508 -2.027786 -2.130655 22.304218 2.915177 -0.363770 3.099926 0.463230 -0.580517 5.103471 0.727693 -1.865424 18.815716 2.496433 2.400412 10.351789 -1.948611 5.443630 -16.534476 -4.802274 -8.736665 -1.182781 -9.815001 -7.219366 0.528821 -7.256995 -31.148597 -27.806058 22.227341 -15.567450 -7.602344 17.159262 0.964530 -1.317973 0.402468 13.052112 0.686108 12.503218 27.127674 -20.440482 -20.833506 14.929078 -15.880001 -14.830833 -6.373380 -45.618988 -16.067167 -8.239472 68.962102 -8.818861 2.554529 0.075460 8.254966 0.005061 -0.004780 0.002247 -7.092763 -40.455156 4.076975 10.272402 64.709143 18.720670 -6.283199 -3.851078 -10.910161 0.000575 0.001453 0.000255
123.421458 126.444319 35.915206 -13.740656 -19.894659 -2.022269 -2.135473 22.279316 2.914116 -0.362611 3.100300 0.465114 -0.581110 5.087193 0.730367 -1.872668 18.844625 2.489390 2.362361 10.287266 -1.925562 5.406274 -16.492531 -4.790703 -8.743268 -1.191636 -9.806610 -7.245937 0.546582 -7.266574 -31.142987 -27.744080 22.250788 -15.595447 -7.561224 17.213428 0.957842 -1.332814 0.416394 13.060939 0.622729 12.474466 27.213161 -20.448062 -20.904373 14.945161 -15.940398 -14.756333 -6.404305 -45.611895 -16.063956 -8.232481 68.952977 -8.804524 2.568795 0.086273 8.249347 0.006473 -0.000933 0.002873 -7.068621 -40.441082 4.073943 10.317917 64.698839 18.727092 -6.306520 -3.840830 -10.898788 -0.008997 0.005436 -0.003994
123.421646 126.447654 35.915439 -13.739819 -19.949099 -2.013871 -2.135729 22.293947 2.911149 -0.368174 3.102372 0.466846 -0.581182 5.083848 0.730744 -1.872337 18.833068 2.490369 2.327033 10.281892 -1.914386 5.396977 -16.459372 -4.791238 -8.762862 -1.212288 -9.809218 -7.281792 0.587914 -7.257886 -31.076960 -27.703900 22.233093 -15.609599 -7.520658 17.267374 0.952950 -1.323203 0.428993 13.072425 0.568498 12.443403 27.323341 -20.451009 -20.996333 14.959666 -15.963067 -14.755545 -6.416657 -45.567412 -16.077910 -8.231917 68.950393 -8.794517 2.583542 0.098161 8.249940 0.007759 0.000309 0.003444 -7.040612 -40.388021 4.060945 10.304089 64.695781 18.700709 -6.317796 -3.828148 -10.950613 -0.010756 0.004463 -0.004775
123.421209 126.448918 35.909753 -13.752144 -19.972511 -2.009609 -2.128750 22.281605 2.919363 -0.366532 3.103976 0.463212 -0.580326 5.081335 0.730834 -1.874793 18.822323 2.497981 2.299666 10.292880 -1.916472 5.378565 -16.445858 -4.785053 -8.769125 -1.187255 -9.830655 -7.295490 0.594546 -7.249418 -31.046380 -27.670188 22.225302 -15.609677 -7.479021 17.331194 0.949830 -1.326364 0.443580 13.078501 0.578359 12.415610 27.472061 -20.491877 -21.124496 14.972631 -15.957010 -14.815969 -6.438604 -45.564761 -16.075796 -8.208200 68.948353 -8.756659 2.600968 0.126539 8.238270 0.009807 -0.003918 0.004353 -7.014575 -40.363872 4.064493 10.277420 64.692882 18.668082 -6.330067 -3.825393 -10.959890 -0.006640 0.005397 -0.002948
123.420276 126.450140 35.903941 -13.758147 -19.996902 -2.008072 -2.126739 22.276100 2.923540 -0.363323 3.108539 0.461568 -0.577684 5.071316 0.732636 -1.868005 18.800752 2.503796 2.263892 10.317786 -1.915387 5.248303 -16.460577 -4.729594 -8.786386 -1.151877 -9.847173 -7.318164 0.591220 -7.212857 -30.991737 -27.645983 22.181628 -15.593122 -7.431370 17.415370 0.937384 -1.372365 0.473042 13.081350 0.637175 12.390495 27.604512 -20.537073 -21.245129 14.990791 -15.947737 -14.897375 -6.434459 -45.546106 -16.078281 -8.226144 68.942816 -8.762639 2.609287 0.140839 8.248505 0.009035 -0.001096 0.004011 -6.996864 -40.337902 4.072562 10.245070 64.688920 18.627913 -6.346198 -3.822785 -10.969099 -0.002894 0.006983 -0.001285
123.421108 126.450416 35.895928 -13.756064 -20.007459 -2.000855 -2.131820 22.252715 2.921000 -0.364617 3.133471 0.456445 -0.573165 5.042834 0.737457 -1.869767 18.818323 2.499618 2.237928 10.305961 -1.910805 5.161458 -16.453109 -4.696131 -8.796883 -1.225639 -9.829526 -7.316612 0.645439 -7.199206 -30.942728 -27.620199 22.124071 -15.576272 -7.369658 17.516421 0.932985 -1.414793 0.481895 13.085795 0.527332 12.353284 27.651161 -20.502700 -21.267834 15.017630 -15.959650 -14.952965 -6.447999 -45.550174 -16.087541 -8.193237 68.946215 -8.732629 2.616918 0.154353 8.259924 0.002886 0.000135 0.001281 -6.983317 -40.326893 4.078566 10.260263 64.667062 18.619353 -6.392031 -3.806168 -10.989725 -0.003249 0.008820 -0.001443
123.421543 126.452013 35.891370 -13.759784 -20.040615 -1.987824 -2.131161 22.253474 2.916084 -0.363816 3.132445 0.456088 -0.573083 5.033826 0.733593 -1.864162 18.823762 2.500661 2.203644 10.308536 -1.908964 5.139901 -16.428773 -4.685571 -8.809193 -1.263687 -9.820770 -7.316258 0.646539 -7.151877 -30.873888 -27.592402 22.017063 -15.584431 -7.286676 17.624112 0.921401 -1.447472 0.485127 13.088190 0.477514 12.339530 27.695125 -20.522716 -21.315084 15.051914 -16.003430 -14.957440 -6.455808 -45.534680 -16.110987 -8.123505 68.954020 -8.666721 2.626342 0.167088 8.266742 -0.005875 -0.000602 -0.002608 -6.957016 -40.294514 4.074446 10.235465 64.659847 18.583740 -6.418288 -3.797804 -11.017121 0.001273 0.007471 0.000565
123.420599 126.455719 35.891840 -13.773312 -20.107475 -1.971297 -2.123699 22.280159 2.905761 -0.362938 3.130532 0.455075 -0.569221 5.027765 0.731719 -1.850030 18.772592 2.499326 2.158926 10.370151 -1.897623 5.049644 -16.407844 -4.648004 -8.834505 -1.197296 -9.824392 -7.311386 0.635764 -7.126572 -30.885688 -27.493194 22.002901 -15.548531 -7.259300 17.723531 0.897129 -1.425608 0.491530 13.086196 0.459423 12.339327 27.728796 -20.576119 -21.361356 15.094040 -16.077828 -14.907811 -6.424221 -45.473445 -16.145073 -8.103087 68.947408 -8.627838 2.623789 0.182969 8.257051 -0.000990 0.000593 -0.000440 -6.920121 -40.228084 4.058143 10.224817 64.653601 18.563035 -6.429394 -3.784052 -11.070176 -0.003646 0.002000 -0.001618
123.420273 126.457975 35.887800 -13.774591 -20.150387 -1.961080 -2.123214 22.231150 2.904457 -0.361782 3.126557 0.453760 -0.574603 5.068844 0.726263 -1.849091 18.766937 2.496561 2.138405 10.410766 -1.893570 4.943573 -16.397753 -4.602000 -8.844282 -1.169148 -9.826427 -7.305479 0.623786 -7.101313 -30.892694 -27.405146 21.985441 -15.529475 -7.223167 17.810868 0.886973 -1.406050 0.491318 13.076624 0.405038 12.330520 27.752157 -20.636017 -21.390056 15.147396 -16.173604 -14.815690 -6.421128 -45.441620 -16.161458 -8.076858 68.949388 -8.605984 2.627774 0.189464 8.255238 -0.004632 0.000788 -0.002056 -6.898205 -40.185893 4.045008 10.207555 64.647867 18.540076 -6.436387 -3.775141 -11.087381 -0.006505 -0.000592 -0.002888
123.419132 126.460165 35.882773 -13.784281 -20.192007 -1.953541 -2.121324 22.219001 2.903503 -0.361944 3.123227 0.452884 -0.574865 5.063701 0.724937 -1.852047 18.758917 2.492794 2.125271 10.460067 -1.893709 4.859661 -16.377144 -4.561944 -8.841062 -1.235486 -9.819817 -7.286808 0.732459 -7.122919 -30.909588 -27.341930 21.988805 -15.501609 -7.220142 17.849200 0.885414 -1.378290 0.485131 13.056801 0.348766 12.318130 27.782173 -20.688339 -21.405125 15.211124 -16.276786 -14.702971 -6.416303 -45.417586 -16.166331 -8.051497 68.950158 -8.583161 2.624951 0.214079 8.253913 -0.003566 -0.003130 -0.001583 -6.860452 -40.142635 4.035373 10.162103 64.643358 18.502041 -6.438570 -3.770638 -11.105533 -0.003163 -0.000464 -0.001404
123.418216 126.462541 35.877994 -13.795414 -20.236995 -1.944253 -2.126022 22.204361 2.900097 -0.358567 3.135977 0.449415 -0.579965 5.040783 0.726446 -1.859155 18.749101 2.488357 2.102293 10.496626 -1.891710 4.800485 -16.322641 -4.528345 -8.828292 -1.263698 -9.826238 -7.286815 0.764967 -7.101006 -30.865656 -27.270171 21.922757 -15.485129 -7.210119 17.885770 0.892236 -1.383761 0.471475 13.033027 0.329712 12.310987 27.830519 -20.724343 -21.413508 15.285905 -16.375585 -14.593096 -6.396341 -45.382996 -16.177152 -8.040310 68.943922 -8.566912 2.615753 0.233681 8.247561 -0.002388 -0.003458 -0.001060 -6.810345 -40.095430 4.015185 10.144577 64.630809 18.492488 -6.452005 -3.764226 -11.107254 -0.002997 0.000487 -0.001331
